<?xml version="1.0" encoding="utf-8"?>
<!-- Generator: Adobe Illustrator 24.0.2, SVG Export Plug-In . SVG Version: 6.00 Build 0)  -->
<svg version="1.1" id="Capa_1" xmlns="http://www.w3.org/2000/svg" xmlns:xlink="http://www.w3.org/1999/xlink" x="0px" y="0px"
	 viewBox="0 0 697.8 150.3" style="enable-background:new 0 0 697.8 150.3;" xml:space="preserve">
<style type="text/css">
	.st0{fill:#FFFFFF;}
	.st1{fill:#36A9E1;}
	.st2{fill-rule:evenodd;clip-rule:evenodd;fill:#36A9E1;}
</style>
<g>
	<path class="st0" d="M230.7,91h26.8c0.4,0,0.7-0.1,1.1-0.4c0.3-0.2,0.5-0.5,0.5-0.9c0-0.3-0.1-0.5-0.3-0.7
		c-0.2-0.1-0.4-0.3-0.6-0.4c-0.3-0.2-0.8-0.4-1.6-0.6c-0.7-0.2-2.1-0.7-4-1.4l-10.6-3.4c-2.2-0.7-4.2-1.6-6-2.6
		c-1.8-1-3.2-2.3-4.1-3.9c-0.7-1.2-1.2-2.5-1.4-4.1s-0.4-2.9-0.4-4.2c0-1.5,0.2-3.1,0.5-4.6c0.3-1.5,0.9-2.9,1.8-4.2
		c1.3-2,2.9-3.3,4.7-3.8s4.1-0.8,6.7-0.8h50.9l-2.2,12.6H250c-0.3,0-0.6,0-1,0c-0.4,0-0.7,0-1.1,0.1c-0.3,0.1-0.5,0.1-0.6,0.2
		c-0.2,0.1-0.2,0.3-0.2,0.6c0,0.4,0.1,0.6,0.3,0.7s0.4,0.3,0.7,0.4c0.6,0.2,1,0.3,1.2,0.4c0.3,0.1,0.5,0.2,0.6,0.3s0.4,0.2,0.6,0.3
		s0.6,0.2,1.2,0.4l12.4,4.2c2.6,0.9,4.8,1.8,6.7,2.7s3.4,2.3,4.6,4c1.2,1.7,1.9,3.4,2.1,5.2c0.3,1.8,0.4,3.2,0.4,4.3
		c0,1.8-0.3,3.6-0.8,5.6c-0.5,1.9-1.6,3.6-3.3,4.9c-1.3,1-2.7,1.7-4.1,2s-2.8,0.4-4,0.4h-35.2V91z"/>
	<path class="st0" d="M282.5,63.8c0-0.7,0.1-1.6,0.3-2.6c0.2-1,0.7-2,1.4-2.9c1.2-1.6,2.7-2.6,4.3-2.9s3.5-0.5,5.4-0.5h42.3
		c2.8,0,5.6,0.4,8.4,1.2s5.1,2,7,3.8c1.7,1.6,3,3.6,3.9,6.1c0.9,2.5,1.3,4.9,1.3,7.1v31h-18.2V76.9c0-1-0.1-2.2-0.3-3.6
		c-0.2-1.3-0.8-2.5-1.6-3.4c-0.5-0.6-1.2-1-2.2-1.5c-1-0.4-2.2-0.6-3.6-0.6h-2v36.4h-18.2V67.7h-7c-0.8,0-1.4,0.1-1.7,0.3
		c-0.3,0.2-0.6,0.3-0.7,0.5c-0.2,0.3-0.3,0.6-0.4,1.1c-0.1,0.5-0.1,0.9-0.1,1.4v33.2h-18.2L282.5,63.8L282.5,63.8z"/>
	<path class="st0" d="M397.2,54.9c3,0,5.6,0.5,7.6,1.4s3.5,1.9,4.6,2.9c1,1,1.8,2.1,2.4,3.3c0.6,1.2,1.1,2.4,1.4,3.6
		c0.3,1.2,0.6,2.4,0.6,3.6c0.1,1.2,0.1,2.3,0.1,3.3v20.6c0,1.3-0.1,2.6-0.4,4s-0.9,2.7-2,3.9c-1.2,1.2-2.5,2-4,2.2
		c-1.5,0.3-2.9,0.4-4.4,0.4h-29c-1.5,0-3.1-0.1-4.7-0.4s-3-1-4.3-2.2c-0.9-0.9-1.7-1.9-2.2-3.1c-0.6-1.2-1-2.4-1.2-3.7
		c-0.3-1.3-0.4-2.5-0.5-3.8c-0.1-1.2-0.1-2.4-0.1-3.3c0-1,0-2.1,0.1-3.3c0.1-1.1,0.3-2.3,0.6-3.4c0.3-1.1,0.7-2.2,1.3-3.2
		c0.6-1,1.3-1.9,2.3-2.6c1.4-1,2.8-1.7,4.3-1.9c1.5-0.2,3-0.3,4.4-0.3h21.5v-0.7c0-0.4,0-0.9-0.1-1.5c-0.1-0.6-0.4-1.2-0.8-1.7
		c-0.7-0.9-1.5-1.5-2.6-1.7c-1-0.2-2-0.3-3-0.3h-24.7V54.9H397.2z M382.9,84.8c-0.3,0-0.7,0-1.3,0.1c-0.5,0.1-1,0.3-1.4,0.7
		c-0.3,0.3-0.5,0.7-0.6,1.1c-0.1,0.4-0.1,0.8-0.1,1.3c0,0.4,0,0.7,0.1,1.1s0.3,0.7,0.6,1s0.7,0.5,1.2,0.6c0.5,0.1,0.9,0.2,1.4,0.2
		h9.5c0.5,0,1,0,1.5-0.1c0.5-0.1,0.9-0.3,1.2-0.5c0.4-0.3,0.7-0.7,0.8-1.1c0.1-0.4,0.1-0.9,0.1-1.3v-3.1H382.9z"/>
	<path class="st0" d="M419.6,75.7c0-1.2,0-2.5,0.1-3.9c0.1-1.4,0.3-2.8,0.7-4.3c0.4-1.5,1-2.9,1.8-4.2c0.8-1.4,1.8-2.6,3.2-3.7
		c1.4-1.1,2.8-2,4.5-2.6s3.2-1.1,4.9-1.4c1.6-0.3,3.2-0.5,4.7-0.6c1.5-0.1,2.9-0.1,4.1-0.1h22.2v12.8h-16.4c-1.8,0-3.5,0.2-5.1,0.6
		c-1.6,0.4-3,1.4-4.1,2.9c-1,1.4-1.7,3-2,4.7c-0.3,1.7-0.4,3.3-0.4,4.7v23.5h-18.2L419.6,75.7L419.6,75.7z"/>
	<path class="st0" d="M485.8,104.2c-0.9,0-2,0-3.2,0c-1.2,0-2.5-0.1-3.8-0.4s-2.8-0.5-4.2-1s-2.8-1.1-4-2c-2-1.4-3.6-3.2-4.6-5.4
		c-1-2.2-1.6-4.4-1.6-6.6V67.6h-7V54.9h7V39.2h18.2v15.8h14v12.6h-14v11.2c0,1.8,0.2,3.6,0.6,5.3s1.2,3.3,2.6,4.5
		c1.2,1.1,2.6,1.8,4,2c1.5,0.2,2.8,0.3,4,0.3h2.7v13.2H485.8z"/>
</g>
<g>
	<path class="st1" d="M566.5,93.4c0,0.5-0.1,1.5-0.3,2.8c-0.2,1.3-0.7,2.6-1.7,3.9s-2.3,2.4-4.2,3.4s-4.5,1.5-7.9,1.5
		c-1.2,0-2.5-0.1-3.7-0.2c-1.2-0.1-2.4-0.4-3.6-0.8s-2.4-1.1-3.5-1.9s-2.2-2-3.2-3.4l-23.3-32.9c-0.3-0.3-0.5-0.6-0.8-1
		c-0.3-0.4-0.6-0.5-0.9-0.5c-0.1,0-0.4,0.1-0.7,0.2c-0.4,0.1-0.5,0.7-0.5,1.6v38.2h-16V50.4c0-2.1,0.4-3.9,1.2-5.3
		c0.8-1.4,1.9-2.6,3.2-3.6s2.9-1.6,4.7-2s3.5-0.6,5.4-0.6c0.9,0,1.9,0.1,3,0.1s2.4,0.3,3.6,0.7c1.2,0.4,2.5,1,3.7,1.8
		c1.2,0.8,2.3,1.9,3.3,3.3l23.5,33.1c0.3,0.3,0.5,0.6,0.8,1c0.3,0.4,0.6,0.5,1,0.5c0.5,0,0.8-0.2,0.9-0.6c0.1-0.4,0.1-0.7,0.1-1
		V39.7h16L566.5,93.4L566.5,93.4z"/>
	<path class="st1" d="M586.4,104.2c-1.3,0-2.7-0.1-4-0.3c-1.3-0.2-2.6-0.8-3.8-1.9c-1.5-1.2-2.3-2.5-2.6-3.8s-0.4-2.8-0.4-4.3V49.6
		c0-1.2,0.2-2.5,0.5-3.8s1.1-2.5,2.3-3.6c1.2-1.1,2.5-1.8,4-2.1c1.4-0.3,2.7-0.5,3.9-0.5h46.3v15.7h-31.9c-0.6,0-1.2,0.1-1.8,0.2
		c-0.6,0.1-1.1,0.4-1.4,0.7c-0.5,0.4-0.8,1-0.9,1.6s-0.1,1.1-0.1,1.6v4.9h35.2v14h-35.2v7c0,0.7,0.1,1.2,0.3,1.6
		c0.2,0.4,0.4,0.6,0.6,0.8c0.5,0.5,1.1,0.8,1.8,0.8c0.7,0,1.4,0,2.1,0h31.5v15.7L586.4,104.2L586.4,104.2z"/>
	<path class="st1" d="M654,104.2V55.7h-23v-16h66.9v16h-23v48.4H654z"/>
</g>
<g>
	<path class="st2" d="M88.6,111.2H78h0H60.3h0h-2.9H33.5h-0.1c-2.8,0-5.4-0.2-7.8-0.6c-9.8-1.6-16.2-6.3-20.2-11.9
		C1.4,93.1,0,86.7,0,81.3c0-1.6,0.1-3.2,0.4-4.7C1.5,70.1,6.5,62,13.6,56.1c4.4-3.6,9.5-6.5,15.2-7.9c1-0.2,1.7-1,1.8-2
		c0.4-3.6,1.4-7,2.9-10.2c2.8-6.2,7.5-11.4,13.7-14.9c5.8-3.3,12.8-5.1,20.9-4.8c0.8,0,1.5-0.3,1.9-0.9c3.6-4.7,8.2-8.4,13.4-10.9
		C89.8,1.3,97-0.2,104.2,0c7.2,0.2,14.4,2.1,20.5,5.6c4.3,2.5,8.2,5.8,11.3,10c0.6,0.8,1.6,1.1,2.5,0.9c2-0.6,4-0.9,5.9-1.1
		c6.6-0.6,12.9,0.9,18.2,4c5.3,3.1,9.7,7.7,12.5,13.3c1.8,3.5,2.9,7.4,3.3,11.5c0.1,0.7,0.1,1.4,0.1,2.1c0,1.1,0.8,2,1.8,2.2
		c3.3,0.7,6.3,2,8.9,3.7c5.2,3.4,9,8.4,11.4,14.3c2.3,5.6,3.4,11.9,3.4,18c0,8.1-1.9,16.1-5.2,22.3c-0.1,0.2-0.2,0.3-0.4,0.5
		c-0.8,0.9-4,3.7-10,3.9c0,0-0.1,0-0.1,0h-17.3h-17.6c-2.2,0-4.1,1.8-4.1,4v30.1c0,2.7-2.2,4.9-4.9,4.9c-1.2,0-2.4-0.5-3.2-1.2
		c-0.1-0.1-0.1-0.1-0.2-0.2L92.6,112c-0.7-0.6-1.5-0.8-2.4-0.8L88.6,111.2L88.6,111.2z M145.7,101.1h11.4c1,0,1.8-0.6,2.2-1.5
		c1.9-4.5,5.6-11,13-16.3c2.3-1.6,5.4-1.1,7,1.2c1.6,2.3,1.1,5.4-1.2,7c-2.6,1.9-4.6,3.8-6,5.7c-0.6,0.7-0.7,1.6-0.3,2.5
		c0.4,0.8,1.2,1.3,2.1,1.3H189c1,0,1.8-0.5,2.1-1.4c1.9-4.4,2.9-9.7,2.9-15.2c0-5-0.8-9.9-2.6-14.2c-1.7-4-4.1-7.5-7.5-9.7
		c-1.4-0.9-3.1-1.7-4.9-2.1c-1.1-0.3-2.3,0.3-2.8,1.4C172,70,163.6,74.5,163.6,74.5c-2.4,1.3-5.5,0.5-6.8-2s-0.4-5.5,2-6.8
		c0,0,11.1-5.9,9.7-20.6c-0.3-2.9-1-5.5-2.2-7.9c-1.9-3.9-4.9-7-8.5-9.1c-3.6-2.1-7.9-3.1-12.3-2.7c-2.3,0.2-4.7,0.8-7.1,1.9
		c-0.2,0.1-0.3,0.1-0.4,0.3c-0.2,0.2-0.5,0.3-0.8,0.4c-0.3,0.1-0.5,0.2-0.8,0.3c-0.2,0.1-0.3,0.1-0.4,0.2
		c-15.1,8.3-20,25.8-20.1,25.9c-0.8,2.7-3.6,4.2-6.2,3.4c-2.7-0.8-4.2-3.6-3.4-6.2c0-0.1,4.9-17.5,19.7-28.5c0.6-0.4,0.9-1,0.9-1.7
		c0.1-0.7-0.1-1.3-0.6-1.8c-1.9-2-4.1-3.7-6.4-5.1c-4.7-2.7-10.2-4.2-15.8-4.3c-5.6-0.2-11.2,1-16.1,3.4c-4.8,2.3-8.8,5.9-11.6,10.6
		c-1.1,1.9-3.3,2.8-5.3,2.4c-0.1,0-0.1,0-0.2,0c-7.4-0.9-13.8,0.4-18.7,3.2c-4.3,2.4-7.5,6.1-9.5,10.4c-2,4.3-2.7,9.4-1.9,14.7
		c0,0,0,0,0,0.1c0,0.1,0,0.2,0,0.3c0,0.1,0,0.1,0,0.2c1.2,6.9,4.9,14.1,11.6,20.7c2,2,2,5.1,0.1,7.1c-1.9,2-5.1,2-7.1,0.1
		C38,76.1,33.6,68.1,31.6,60.3c-0.2-0.7-0.6-1.2-1.2-1.5c-0.6-0.3-1.3-0.4-1.9-0.1c-3,1.1-5.9,2.9-8.4,5c-5.3,4.5-9,10.2-9.8,14.5
		c-0.2,0.9-0.2,1.9-0.2,3.1c0,3.6,0.9,8,3.5,11.6c2.5,3.6,6.8,6.6,13.6,7.7c1.9,0.3,3.9,0.5,6.3,0.5h23.9c5.4,0,12-1.8,16.8-6.3
		c3.7-3.4,6.4-8.5,6.8-15.6c0.4-6.8-2.4-12.2-5.8-16.1c-0.1-0.1-0.1-0.1-0.2-0.2c-0.3-0.2-0.5-0.5-0.7-0.7c-0.1-0.1-0.1-0.1-0.2-0.2
		c-4.5-4.6-9.5-6.9-9.5-6.9c-2.5-1.2-3.6-4.1-2.5-6.7c1.2-2.5,4.2-3.6,6.7-2.5c0,0,2.5,1.1,5.7,3.4c0.6,0.4,1.2,0.5,1.9,0.4
		c0.7-0.1,1.2-0.5,1.5-1.1c3.7-6.6,9.8-15.4,18.3-21.1c2.3-1.6,5.4-0.9,7,1.4c1.5,2.3,0.9,5.4-1.4,7c-8.6,5.8-14.3,15.7-17,21.2
		c-0.4,0.8-0.3,1.7,0.2,2.4c2.4,3.4,4.4,7.4,5.4,12.1c0.2,0.8,0.7,1.4,1.5,1.7c8.6,3.2,30.9,7.6,46-23.2c1.2-2.5,4.2-3.5,6.7-2.3
		c2.5,1.2,3.5,4.2,2.3,6.7c-4.3,8.9-9.2,15.3-14.3,20c-0.6,0.6-0.9,1.4-0.7,2.3c0.9,3.6,2.9,8.6,7.2,9.2c2.7,0.4,4.6,3,4.2,5.8
		c-0.4,2.7-3,4.6-5.8,4.2c-7.4-1.2-11.5-6.9-13.7-12.3c-0.3-0.6-0.7-1-1.3-1.3s-1.2-0.2-1.8,0c-10.5,4.6-20.7,3.6-27.7,1.7
		c-0.6-0.2-1.3-0.1-1.8,0.3c-0.6,0.4-0.9,0.9-1.1,1.5c-1,4.5-2.8,8.4-5,11.6c-0.5,0.7-0.6,1.6-0.2,2.4c0.4,0.8,1.2,1.3,2.1,1.3h4.5
		c0.2,0,0.3,0,0.5,0c1.2-0.1,2.5,0.2,3.5,1l37.6,28.5c1.3,1,2.8,1.1,4.3,0.4s2.3-2,2.3-3.6v-21.5
		C139.6,102.8,141.8,101.1,145.7,101.1L145.7,101.1z"/>
	<g>
		<circle class="st1" cx="98.9" cy="30.6" r="8.8"/>
		<circle class="st0" cx="98.9" cy="30.6" r="4.3"/>
	</g>
	<g>
		<circle class="st1" cx="48.3" cy="78.8" r="8.8"/>
		<circle class="st0" cx="48.3" cy="78.8" r="4.3"/>
	</g>
	<g>
		<circle class="st1" cx="175.3" cy="86" r="8.8"/>
		<circle class="st0" cx="175.3" cy="86" r="4.3"/>
	</g>
	<g>
		<circle class="st1" cx="142.3" cy="51.1" r="8.8"/>
		<circle class="st0" cx="142.3" cy="51.1" r="4.3"/>
	</g>
	<g>
		<circle class="st1" cx="144.6" cy="90.5" r="8.8"/>
		<circle class="st0" cx="144.6" cy="90.5" r="4.3"/>
	</g>
</g>
</svg>
